<?xml version="1.0" encoding="UTF-8"?>
<svg id="a" xmlns="http://www.w3.org/2000/svg" version="1.1" viewBox="0 0 251.87 251.87">
  <!-- Generator: Adobe Illustrator 30.3.0, SVG Export Plug-In . SVG Version: 2.1.3 Build 182)  -->
  <defs>
    <style>
      .st0 {
        fill: #092547;
      }

      .st1 {
        fill: #36ba81;
      }

      .st2 {
        fill: #ea4e47;
      }

      .st3 {
        fill: #e8ba46;
      }

      .st4 {
        fill: #005f8e;
      }
    </style>
  </defs>
  <rect class="st0" width="251.87" height="251.87" rx="32" ry="32"/>
  <path class="st3" d="M26.45,117.14l47.18-82.04c1.02-1.63,2.31-2.44,3.86-2.44h58.88c10.63,0,15.48,3.1,14.54,9.31-.39,2.56-1.57,5.47-3.53,8.73l-13.12,22.92c-2.53,4.42-5.56,7.93-9.1,10.53-3.54,2.6-7.75,4.4-12.63,5.41l-3.15,27.81c-.22,1.47-1.11,2.21-2.66,2.21h-22.34c-1.71,0-2.45-.74-2.23-2.21l3.48-26.88h-15.01l-15.31,26.65c-.87,1.63-2.15,2.44-3.86,2.44h-23.97c-1.55,0-1.9-.81-1.03-2.44h0ZM104.77,69.31c2.17,0,3.94-1.2,5.32-3.61l2.85-5c.53-.93.83-1.63.9-2.1.16-1.08-.49-1.63-1.96-1.63h-21.99l-7.1,12.33s21.99,0,21.99,0Z"/>
  <path class="st2" d="M107.53,208.4c.54-3.57,2.28-7.87,5.21-12.92l22.55-39.1c2.74-4.81,5.34-8.76,7.79-11.87,2.45-3.1,5.05-5.57,7.81-7.39,2.76-1.82,5.8-3.08,9.12-3.78,3.32-.7,7.27-1.05,11.85-1.05h50.27c1.16,0,1.69.35,1.59,1.05-.05.31-.23.78-.56,1.4l-11.24,19.67c-.87,1.63-2.15,2.44-3.86,2.44h-40.73c-2.02,0-3.71,1.21-5.09,3.61l-17.64,30.49c-.54,1.01-.85,1.74-.92,2.21-.15,1.01.47,1.51,1.87,1.51h20.25c.85,0,1.56-.19,2.12-.58.56-.39,1.1-1.01,1.62-1.86l3.31-5.7h-8.96c-1.16,0-1.69-.35-1.59-1.05.06-.39.25-.85.56-1.4l9.16-15.94c.87-1.63,2.15-2.45,3.86-2.45h24.09c3.96,0,6.74.21,8.34.64,1.6.43,2.28,1.49,2.02,3.2-.14.93-.57,2.13-1.3,3.61-.73,1.48-1.73,3.34-3,5.59l-9.52,16.76c-2.66,4.73-5.19,8.63-7.59,11.7-2.4,3.07-4.96,5.49-7.68,7.27-2.71,1.79-5.71,3.03-9,3.73-3.29.7-7.14,1.05-11.56,1.05h-39.57c-10.16,0-14.7-3.61-13.61-10.82h0Z"/>
  <g>
    <path class="st4" d="M82.01,209.63l26.05-45.11c2.25-3.9.23-8.87-4.1-10.09l-62.22-17.54c-5.96-1.68-10.94,4.73-7.84,10.09l36.17,62.66c2.65,4.6,9.29,4.6,11.94,0h0Z"/>
    <path class="st1" d="M176.82,42.24l-26.05,45.11c-2.25,3.89-.23,8.86,4.1,10.08l62.22,17.54c5.96,1.68,10.94-4.73,7.84-10.08l-36.18-62.66c-2.65-4.6-9.29-4.6-11.94,0h0Z"/>
  </g>
</svg>